<svg xmlns="http://www.w3.org/2000/svg" viewBox="0 0 1000 740" role="img" aria-label="保存室と技師室の見取り図"><defs><pattern id="grid" width="95" height="95" patternUnits="userSpaceOnUse"><path d="M 95 0 H 0 V 95" fill="none" stroke="#344d55" stroke-width="1"/></pattern></defs><rect width="1000" height="740" fill="#20343c"/><rect x="72.5" y="56.0" width="855.0" height="608.0" rx="12" fill="#30464e" stroke="#9db9bd" stroke-width="3"/><rect x="82.9" y="58.4" width="427.5" height="603.2" rx="4" fill="url(#grid)"/><rect x="537.0" y="58.4" width="380.0" height="603.2" rx="4" fill="#849b9e"/><rect x="516.1" y="75.5" width="19.0" height="363.9" rx="4" fill="#cad9da"/><rect x="515.2" y="607.5" width="20.9" height="14.2" rx="4" fill="#c6d1d1"/><rect x="515.2" y="447.9" width="20.9" height="14.2" rx="4" fill="#c6d1d1"/><rect x="514.7" y="462.1" width="21.9" height="145.3" rx="4" fill="#bd865a"/><rect x="142.8" y="235.6" width="269.8" height="119.7" rx="4" fill="#c3d0d0" stroke="#192c35" stroke-width="3"/><rect x="211.2" y="259.8" width="144.4" height="14.2" rx="4" fill="#132933"/><text x="283.4" y="286.9" fill="#bac9ca" text-anchor="middle" font-family="system-ui,sans-serif" font-size="17">KOMO</text><rect x="638.2" y="179.5" width="189.1" height="148.2" rx="4" fill="#263e49" stroke="#d1dada" stroke-width="3"/><rect x="653.9" y="325.8" width="157.7" height="13.3" rx="4" fill="#258d88"/><rect x="275.8" y="520.5" width="172.9" height="70.3" rx="4" fill="#c3d0d0" stroke="#192c35" stroke-width="3"/><rect x="284.4" y="527.7" width="155.8" height="56.0" rx="4" fill="#368b86"/><rect x="104.8" y="531.0" width="77.9" height="76.0" rx="4" fill="#2b7d7b" stroke="#bdcccc" stroke-width="3"/><rect x="123.8" y="545.7" width="39.9" height="46.5" rx="4" fill="#e3dfc8"/><rect x="676.2" y="456.0" width="128.2" height="155.8" rx="4" fill="#1c343d" stroke="#9db9bd" stroke-width="3"/><rect x="693.3" y="511.5" width="94.0" height="84.5" rx="4" fill="#4c8d8b"/><rect x="697.6" y="459.8" width="85.5" height="53.2" rx="4" fill="#aabec1"/><path d="M709.0 458.8 L772.6500000000001 602.25 M771.7 458.8 L708.05 602.25" stroke="#eee9d7" stroke-width="7" fill="none"/><rect x="776.2" y="588.5" width="10.0" height="23.8" rx="4" fill="#eee9d7"/><rect x="539.6" y="444.6" width="8.5" height="23.8" rx="4" fill="#0f2631"/><g data-npc="io"><circle cx="258.7" cy="406.55" r="19" fill="#234b91" stroke="#e1e9e6" stroke-width="2"/><circle cx="258.7" cy="399.55" r="8" fill="#d8b097"/></g><text x="258.7" y="442.6" fill="#eef3ef" text-anchor="middle" font-family="system-ui,sans-serif" font-size="16">イオ</text><g data-npc="nagi"><circle cx="376.5" cy="443.6" r="19" fill="#71818a" stroke="#e1e9e6" stroke-width="2"/><circle cx="376.5" cy="436.6" r="8" fill="#d8b097"/></g><text x="376.5" y="479.7" fill="#eef3ef" text-anchor="middle" font-family="system-ui,sans-serif" font-size="16">ナギ</text><g data-npc="yun"><circle cx="862.9" cy="288.75" r="19" fill="#e1b33f" stroke="#e1e9e6" stroke-width="2"/><circle cx="862.9" cy="281.75" r="8" fill="#d8b097"/></g><text x="862.9" y="324.9" fill="#eef3ef" text-anchor="middle" font-family="system-ui,sans-serif" font-size="16">ユン</text><g data-npc="rui"><circle cx="209.3" cy="555.7" r="19" fill="#b3643b" stroke="#e1e9e6" stroke-width="2"/><circle cx="209.3" cy="548.7" r="8" fill="#d8b097"/></g><text x="209.3" y="591.8" fill="#eef3ef" text-anchor="middle" font-family="system-ui,sans-serif" font-size="16">ルイ</text><text x="300.5" y="103.5" fill="#bac9ca" text-anchor="middle" font-family="system-ui,sans-serif" font-size="29">01</text><text x="723.2" y="103.5" fill="#bac9ca" text-anchor="middle" font-family="system-ui,sans-serif" font-size="29">02</text><text x="196.0" y="718.1" fill="#bac9ca" text-anchor="middle" font-family="system-ui,sans-serif" font-size="18">RECORD &amp; BODY</text><text x="856.2" y="718.1" fill="#bac9ca" text-anchor="middle" font-family="system-ui,sans-serif" font-size="18">05</text></svg>